<svg width="218" height="151" viewBox="0 0 218 151" fill="none" xmlns="http://www.w3.org/2000/svg">
<path d="M16.5243 90.4606C16.5839 91.5175 16.4507 91.979 16.6501 92.2898C32.829 117.511 56.5078 135.024 89.26 142.89C97.5812 144.888 106.222 145.005 114.765 143.579C133.187 140.503 146.339 128.224 148.157 112.358C149.098 104.143 148.474 96.1389 143.45 88.6449C138.941 87.8686 134.444 87.3436 130.116 86.2918C123.288 84.6323 117.796 81.2906 114.501 75.7438C112.022 71.5707 112.119 67.6786 114.881 65.5919C118.367 62.9588 122.669 63.2014 126.173 65.0334C131.075 67.5963 135.589 70.7929 139.885 74.0812C142.672 76.2146 144.775 78.995 147.132 81.4316C164.914 79.9847 173.165 66.118 166.54 48.6709C164.089 47.9961 161.416 47.4094 158.877 46.5341C149.737 43.3839 142.833 38.2244 139.913 30.0116C138.816 26.9255 138.522 23.5527 141.845 21.0736C144.411 19.16 148.875 19.3747 153.134 21.7376C159.898 25.4911 164.529 30.8819 168.472 36.7328C169.846 38.7707 171.057 40.8859 172.286 42.8732C199.872 41.5101 220.251 21.4629 210.223 0.365578C212.216 0.653423 213.961 0.487196 214.883 1.15035C215.905 1.88547 216.512 3.34055 216.721 4.54708C218.688 15.9207 216.678 26.3713 206.581 34.6364C199.057 40.796 190.046 44.8721 179.965 47.2916C178.528 47.6366 177.1 48.0097 175.679 48.3988C175.472 48.4555 175.328 48.6738 174.8 49.1124C174.879 50.2722 174.892 51.744 175.093 53.1994C177.58 71.1705 171.486 80.2526 151.51 87.6672C152.067 89.3601 152.628 91.1396 153.239 92.9072C156.846 103.346 156.646 113.653 152.195 123.778C144.875 140.428 127.19 150.572 105.525 150.69C93.7307 150.754 82.4508 148.622 71.6924 144.495C45.5838 134.479 25.3977 119.1 12.7424 96.9931C12.0779 95.8321 11.3914 94.6795 10.6822 93.5376C10.5851 93.381 10.2951 93.3089 9.26642 92.7389C7.81273 97.181 8.11032 101.502 8.12585 105.764C8.1412 109.957 8.35836 114.153 8.49787 118.699C4.41434 118.126 2.88235 116.223 2.11357 113.894C1.22974 111.216 0.119437 108.45 0.125978 105.737C0.143743 98.469 0.309981 91.1694 1.17699 83.9579C1.86708 78.2174 5.59694 76.8027 10.9755 79.6427C22.3907 85.67 33.7546 91.769 45.0883 97.9078C46.8637 98.8695 48.3702 100.194 50.5127 101.714C46.9713 104.095 44.5109 102.856 42.1539 101.823C33.8249 98.1716 25.5319 94.4602 16.5243 90.4606ZM146.385 25.3905C147.42 34.6246 154.073 40.7055 163.785 41.4872C159.249 35.1006 155.234 29.0206 146.385 25.3905ZM119.951 69.2799C121.713 77.2477 127.858 81.2092 137.477 80.8381C132.772 75.5558 128.188 70.8882 119.951 69.2799Z" fill="black"/>
</svg>
