<svg width="234" height="97" viewBox="0 0 234 97" fill="none" xmlns="http://www.w3.org/2000/svg">
<path d="M33.8984 29.7812H40.9297C40.9297 31.4844 40.9297 33.2734 40.9297 35.1484C40.9297 37.0078 40.9297 38.8438 40.9297 40.6562C40.9297 42.4688 40.9297 44.1406 40.9297 45.6719C40.9297 47.1875 40.9297 48.4609 40.9297 49.4922C40.9297 50.5234 40.9297 51.1797 40.9297 51.4609C40.9297 54.6328 40.4453 57.1797 39.4766 59.1016C38.5234 61.0234 37.1797 62.4219 35.4453 63.2969C33.7266 64.1562 31.7109 64.5859 29.3984 64.5859C28.5859 64.5859 27.6875 64.4922 26.7031 64.3047C25.7344 64.1172 24.7969 63.8281 23.8906 63.4375C22.9844 63.0312 22.2188 62.5156 21.5938 61.8906L22.7422 55.8672C23.6172 56.7734 24.6562 57.4688 25.8594 57.9531C27.0625 58.4375 28.2578 58.6797 29.4453 58.6797C30.8203 58.6797 31.8438 58.3203 32.5156 57.6016C33.2031 56.8672 33.6641 55.9141 33.8984 54.7422C34.1328 53.5547 34.25 52.2812 34.25 50.9219V41.0312C34.25 38.75 34.2266 36.6172 34.1797 34.6328C34.1484 32.6328 34.0547 31.0156 33.8984 29.7812ZM72.2188 64H66.0078C65.7891 63.5 65.5469 62.8594 65.2812 62.0781C65.0312 61.2812 64.8438 60.4766 64.7188 59.6641C63.3438 61.2734 61.9062 62.5 60.4062 63.3438C58.9219 64.1719 57.375 64.5859 55.7656 64.5859C50.875 64.5859 48.4297 61.2266 48.4297 54.5078C48.4297 54.3984 48.4297 54.0078 48.4297 53.3359C48.4297 52.6641 48.4297 51.9062 48.4297 51.0625C48.4297 50.2031 48.4297 49.4375 48.4297 48.7656C48.4297 48.0938 48.4297 47.7031 48.4297 47.5938C48.4297 46.1094 48.4062 44.8438 48.3594 43.7969C48.3125 42.7344 48.1797 41.5 47.9609 40.0938H54.9922V53.1016C54.9922 55.2266 55.2188 56.7734 55.6719 57.7422C56.1406 58.6953 56.9688 59.1719 58.1562 59.1719C58.875 59.1719 59.6328 58.9062 60.4297 58.375C61.2266 57.8438 61.9609 57.1953 62.6328 56.4297C63.3203 55.6641 63.8203 54.9219 64.1328 54.2031V47.5938C64.1328 46.5625 64.125 45.6641 64.1094 44.8984C64.0938 44.1328 64.0469 43.3828 63.9688 42.6484C63.9062 41.8984 63.8047 41.0469 63.6641 40.0938H70.6953V53.4531C70.6953 55.7188 70.8281 57.7188 71.0938 59.4531C71.3594 61.1719 71.7344 62.6875 72.2188 64ZM78.1016 40.0938H85.0156C85.0156 41.2656 85.0156 42.5156 85.0156 43.8438C85.0156 45.1719 85.0156 46.4609 85.0156 47.7109C85.0156 48.9453 85.0156 50.0234 85.0156 50.9453C85.0156 51.8672 85.0156 52.5078 85.0156 52.8672C85.0156 53.8672 85.0312 55.0859 85.0625 56.5234C85.1094 57.9453 85.1641 59.3359 85.2266 60.6953C85.3047 62.0547 85.3906 63.1562 85.4844 64H78.4531C78.4531 62.875 78.4531 61.5547 78.4531 60.0391C78.4531 58.5234 78.4531 57.0156 78.4531 55.5156C78.4531 54 78.4531 52.6875 78.4531 51.5781C78.4531 49.2969 78.4297 47.125 78.3828 45.0625C78.3516 42.9844 78.2578 41.3281 78.1016 40.0938ZM77.6328 31.5391C77.6328 30.3359 78.0156 29.3516 78.7812 28.5859C79.5625 27.8203 80.5469 27.4375 81.7344 27.4375C82.9375 27.4375 83.9219 27.8203 84.6875 28.5859C85.4531 29.3516 85.8359 30.3359 85.8359 31.5391C85.8359 32.7578 85.4531 33.75 84.6875 34.5156C83.9219 35.2656 82.9375 35.6406 81.7344 35.6406C80.5469 35.6406 79.5625 35.2656 78.7812 34.5156C78.0156 33.75 77.6328 32.7578 77.6328 31.5391ZM110.445 41.5L109.531 47.0078C108.656 46.5547 107.547 46.0703 106.203 45.5547C104.875 45.0391 103.398 44.7812 101.773 44.7812C100.398 44.7812 99.4453 45.0156 98.9141 45.4844C98.3984 45.9531 98.1406 46.4219 98.1406 46.8906C98.1406 47.2656 98.2422 47.5859 98.4453 47.8516C98.6641 48.1172 99.1016 48.3672 99.7578 48.6016C100.43 48.8203 101.453 49.0703 102.828 49.3516C104.453 49.6641 105.938 50.1094 107.281 50.6875C108.641 51.25 109.719 52.0078 110.516 52.9609C111.328 53.9141 111.734 55.1328 111.734 56.6172C111.734 58.1172 111.281 59.4688 110.375 60.6719C109.469 61.875 108.242 62.8281 106.695 63.5312C105.164 64.2344 103.445 64.5859 101.539 64.5859C99.4453 64.5859 97.5156 64.3203 95.75 63.7891C93.9844 63.2422 92.5938 62.6094 91.5781 61.8906L92.8672 56.1484C94.0234 57.1016 95.4297 57.8672 97.0859 58.4453C98.7578 59.0234 100.281 59.3125 101.656 59.3125C102.766 59.3125 103.664 59.1016 104.352 58.6797C105.055 58.2422 105.406 57.75 105.406 57.2031C105.406 56.5156 105.047 55.9141 104.328 55.3984C103.609 54.8672 102.133 54.3594 99.8984 53.875C97.6797 53.3906 95.9844 52.8125 94.8125 52.1406C93.6562 51.4688 92.8672 50.7109 92.4453 49.8672C92.0234 49.0234 91.8125 48.1094 91.8125 47.125C91.8125 46.5469 91.9688 45.8438 92.2812 45.0156C92.5938 44.1719 93.125 43.3438 93.875 42.5312C94.6406 41.7031 95.6797 41.0156 96.9922 40.4688C98.3203 39.9062 99.9922 39.625 102.008 39.625C103.914 39.625 105.57 39.8281 106.977 40.2344C108.383 40.625 109.539 41.0469 110.445 41.5ZM117.383 40.0938H124.297C124.297 41.2656 124.297 42.5156 124.297 43.8438C124.297 45.1719 124.297 46.4609 124.297 47.7109C124.297 48.9453 124.297 50.0234 124.297 50.9453C124.297 51.8672 124.297 52.5078 124.297 52.8672C124.297 53.8672 124.312 55.0859 124.344 56.5234C124.391 57.9453 124.445 59.3359 124.508 60.6953C124.586 62.0547 124.672 63.1562 124.766 64H117.734C117.734 62.875 117.734 61.5547 117.734 60.0391C117.734 58.5234 117.734 57.0156 117.734 55.5156C117.734 54 117.734 52.6875 117.734 51.5781C117.734 49.2969 117.711 47.125 117.664 45.0625C117.633 42.9844 117.539 41.3281 117.383 40.0938ZM116.914 31.5391C116.914 30.3359 117.297 29.3516 118.062 28.5859C118.844 27.8203 119.828 27.4375 121.016 27.4375C122.219 27.4375 123.203 27.8203 123.969 28.5859C124.734 29.3516 125.117 30.3359 125.117 31.5391C125.117 32.7578 124.734 33.75 123.969 34.5156C123.203 35.2656 122.219 35.6406 121.016 35.6406C119.828 35.6406 118.844 35.2656 118.062 34.5156C117.297 33.75 116.914 32.7578 116.914 31.5391ZM150.125 41.2891L149.094 46.9609C148.281 46.2266 147.391 45.6797 146.422 45.3203C145.453 44.9609 144.305 44.7812 142.977 44.7812C141.227 44.7812 139.82 45.4609 138.758 46.8203C137.711 48.1797 137.188 50 137.188 52.2812C137.188 54.3438 137.68 56.0312 138.664 57.3438C139.664 58.6562 141.102 59.3125 142.977 59.3125C144.383 59.3125 145.594 59.0859 146.609 58.6328C147.625 58.1797 148.641 57.5469 149.656 56.7344L150.359 62.3594C149.297 63.0781 148.086 63.625 146.727 64C145.367 64.3906 143.812 64.5859 142.062 64.5859C139.969 64.5859 138.055 64.1172 136.32 63.1797C134.586 62.2422 133.203 60.875 132.172 59.0781C131.141 57.2656 130.625 55.0781 130.625 52.5156C130.625 50.0781 131.125 47.8906 132.125 45.9531C133.141 44 134.562 42.4609 136.391 41.3359C138.234 40.1953 140.391 39.625 142.859 39.625C144.406 39.625 145.789 39.7891 147.008 40.1172C148.227 40.4453 149.266 40.8359 150.125 41.2891ZM68.3516 78.5938H69.9531C69.9531 79.7969 69.9531 81.0026 69.9531 82.2109C69.9531 83.4141 69.9531 84.6172 69.9531 85.8203C69.9531 86.9036 69.8099 87.7656 69.5234 88.4062C69.237 89.0417 68.8385 89.5 68.3281 89.7812C67.8177 90.0573 67.2266 90.1953 66.5547 90.1953C66.3099 90.1953 66.0339 90.1641 65.7266 90.1016C65.4193 90.0391 65.1224 89.9427 64.8359 89.8125C64.5547 89.6771 64.3203 89.5052 64.1328 89.2969L64.4844 87.8516C64.7448 88.1536 65.0573 88.3854 65.4219 88.5469C65.7917 88.7083 66.1562 88.7891 66.5156 88.7891C67.0885 88.7891 67.5573 88.5833 67.9219 88.1719C68.2865 87.7604 68.4688 87.1068 68.4688 86.2109V82.3438C68.4688 81.5833 68.4609 80.8724 68.4453 80.2109C68.4349 79.5443 68.4036 79.0052 68.3516 78.5938ZM79.9219 90H78.5938C78.5208 89.8177 78.4401 89.5859 78.3516 89.3047C78.2682 89.0182 78.2057 88.7292 78.1641 88.4375C77.6901 89.0104 77.2005 89.4479 76.6953 89.75C76.1901 90.0469 75.6641 90.1953 75.1172 90.1953C73.4505 90.1953 72.6172 89.0755 72.6172 86.8359C72.6172 86.7995 72.6172 86.6693 72.6172 86.4453C72.6172 86.2214 72.6172 85.9688 72.6172 85.6875C72.6172 85.401 72.6172 85.1458 72.6172 84.9219C72.6172 84.6979 72.6172 84.5677 72.6172 84.5312C72.6172 84.0365 72.6094 83.6146 72.5938 83.2656C72.5781 82.9115 72.5339 82.5 72.4609 82.0312H74.0625V86.3672C74.0625 87.2526 74.1589 87.8984 74.3516 88.3047C74.5495 88.7057 74.8958 88.9062 75.3906 88.9062C75.6979 88.9062 76.0234 88.7917 76.3672 88.5625C76.7161 88.3281 77.0365 88.0417 77.3281 87.7031C77.6198 87.3646 77.8333 87.0365 77.9688 86.7188V84.5312C77.9688 84.1875 77.9661 83.888 77.9609 83.6328C77.9557 83.3776 77.9401 83.1276 77.9141 82.8828C77.8932 82.6328 77.8594 82.349 77.8125 82.0312H79.4141V86.4844C79.4141 87.2396 79.4583 87.9062 79.5469 88.4844C79.6354 89.0573 79.7604 89.5625 79.9219 90ZM82.0391 82.0312H83.6016C83.6016 82.7396 83.6016 83.4479 83.6016 84.1562C83.6016 84.8646 83.6016 85.5755 83.6016 86.2891C83.6016 86.6224 83.6068 87.0286 83.6172 87.5078C83.6328 87.9818 83.651 88.4453 83.6719 88.8984C83.6979 89.3516 83.7266 89.7188 83.7578 90H82.1562C82.1562 89.625 82.1562 89.1849 82.1562 88.6797C82.1562 88.1745 82.1562 87.6719 82.1562 87.1719C82.1562 86.6667 82.1562 86.2292 82.1562 85.8594C82.1562 85.099 82.1484 84.375 82.1328 83.6875C82.1224 82.9948 82.0911 82.4427 82.0391 82.0312ZM81.8828 79.4922C81.8828 79.2005 81.974 78.9531 82.1562 78.75C82.3385 78.5417 82.5729 78.4375 82.8594 78.4375C83.151 78.4375 83.3932 78.5417 83.5859 78.75C83.7786 78.9531 83.875 79.2005 83.875 79.4922C83.875 79.7786 83.7786 80.026 83.5859 80.2344C83.3932 80.4427 83.151 80.5469 82.8594 80.5469C82.5729 80.5469 82.3385 80.4427 82.1562 80.2344C81.974 80.026 81.8828 79.7786 81.8828 79.4922ZM92.1641 87.9688L92.3203 89.3359C91.9245 89.6328 91.5234 89.8516 91.1172 89.9922C90.7109 90.1276 90.2135 90.1953 89.625 90.1953C88.9271 90.1953 88.2917 90.0339 87.7188 89.7109C87.1458 89.3828 86.6875 88.9193 86.3438 88.3203C86.0052 87.7161 85.8359 87 85.8359 86.1719C85.8359 85.3854 86 84.6667 86.3281 84.0156C86.6615 83.3646 87.1328 82.8464 87.7422 82.4609C88.3516 82.0703 89.0703 81.875 89.8984 81.875C90.4193 81.875 90.8672 81.9375 91.2422 82.0625C91.6224 82.1823 91.9557 82.3411 92.2422 82.5391L91.9688 83.9453C91.6198 83.6849 91.2682 83.4896 90.9141 83.3594C90.5599 83.2292 90.1823 83.1641 89.7812 83.1641C89.0885 83.1641 88.5052 83.4219 88.0312 83.9375C87.5573 84.4531 87.3203 85.1719 87.3203 86.0938C87.3203 86.9323 87.5417 87.612 87.9844 88.1328C88.4271 88.6484 89.026 88.9062 89.7812 88.9062C90.25 88.9062 90.6797 88.8255 91.0703 88.6641C91.4609 88.5026 91.8255 88.2708 92.1641 87.9688ZM100.789 86.2109H94.9766V85.1172H99.3906C99.3906 84.4453 99.2057 83.9323 98.8359 83.5781C98.4714 83.224 98.0052 83.0469 97.4375 83.0469C96.7552 83.0469 96.2188 83.2891 95.8281 83.7734C95.4427 84.2578 95.25 85.0182 95.25 86.0547C95.25 87.0182 95.4844 87.7344 95.9531 88.2031C96.4271 88.6719 97.026 88.9062 97.75 88.9062C98.2552 88.9062 98.75 88.849 99.2344 88.7344C99.724 88.6146 100.206 88.4115 100.68 88.125L100.836 89.4141C100.284 89.7005 99.75 89.901 99.2344 90.0156C98.7188 90.1354 98.1589 90.1953 97.5547 90.1953C96.8932 90.1953 96.276 90.0417 95.7031 89.7344C95.1354 89.4271 94.6771 88.9714 94.3281 88.3672C93.9792 87.763 93.8047 87.0182 93.8047 86.1328C93.8047 85.2682 93.9557 84.5182 94.2578 83.8828C94.5651 83.2474 94.9974 82.7552 95.5547 82.4062C96.1172 82.0521 96.7839 81.875 97.5547 81.875C98.2005 81.875 98.7318 81.9844 99.1484 82.2031C99.5703 82.4219 99.901 82.7135 100.141 83.0781C100.38 83.4427 100.549 83.8464 100.648 84.2891C100.747 84.7266 100.797 85.1641 100.797 85.6016C100.797 85.6693 100.797 85.7708 100.797 85.9062C100.797 86.0365 100.794 86.138 100.789 86.2109ZM111.391 82.0312H112.562L114.594 88.3203L116.234 82.0312H117.68C117.56 82.4271 117.453 82.776 117.359 83.0781C117.271 83.375 117.188 83.6589 117.109 83.9297C117.031 84.2005 116.948 84.4922 116.859 84.8047L115.414 90H113.93L111.977 83.8672L110.023 90H108.539L107.094 84.8047C106.979 84.388 106.859 83.9714 106.734 83.5547C106.609 83.138 106.456 82.6302 106.273 82.0312H107.719L109.359 88.3203L111.391 82.0312ZM119.398 82.0312H120.961C120.961 82.7396 120.961 83.4479 120.961 84.1562C120.961 84.8646 120.961 85.5755 120.961 86.2891C120.961 86.6224 120.966 87.0286 120.977 87.5078C120.992 87.9818 121.01 88.4453 121.031 88.8984C121.057 89.3516 121.086 89.7188 121.117 90H119.516C119.516 89.625 119.516 89.1849 119.516 88.6797C119.516 88.1745 119.516 87.6719 119.516 87.1719C119.516 86.6667 119.516 86.2292 119.516 85.8594C119.516 85.099 119.508 84.375 119.492 83.6875C119.482 82.9948 119.451 82.4427 119.398 82.0312ZM119.242 79.4922C119.242 79.2005 119.333 78.9531 119.516 78.75C119.698 78.5417 119.932 78.4375 120.219 78.4375C120.51 78.4375 120.753 78.5417 120.945 78.75C121.138 78.9531 121.234 79.2005 121.234 79.4922C121.234 79.7786 121.138 80.026 120.945 80.2344C120.753 80.4427 120.51 80.5469 120.219 80.5469C119.932 80.5469 119.698 80.4427 119.516 80.2344C119.333 80.026 119.242 79.7786 119.242 79.4922ZM128.391 88.3203V89.5703C128.031 89.7995 127.688 89.9609 127.359 90.0547C127.031 90.1484 126.729 90.1953 126.453 90.1953C126.047 90.1953 125.677 90.1302 125.344 90C125.01 89.8646 124.745 89.6302 124.547 89.2969C124.349 88.9583 124.25 88.4896 124.25 87.8906C124.25 87.7031 124.25 87.3958 124.25 86.9688C124.25 86.5417 124.25 86.0391 124.25 85.4609C124.25 84.8776 124.25 84.2552 124.25 83.5938C124.25 82.9271 124.25 82.2578 124.25 81.5859C124.25 80.9141 124.25 80.2812 124.25 79.6875H125.695C125.695 80.3542 125.695 81.0677 125.695 81.8281C125.695 82.5833 125.695 83.3151 125.695 84.0234C125.695 84.7318 125.695 85.349 125.695 85.875C125.695 86.3958 125.695 86.7552 125.695 86.9531C125.695 87.4896 125.729 87.8984 125.797 88.1797C125.87 88.4609 125.979 88.6536 126.125 88.7578C126.271 88.8568 126.461 88.9062 126.695 88.9062C127.122 88.9062 127.688 88.7109 128.391 88.3203ZM128.234 83.3594H122.688V82.2266H128.234V83.3594ZM131.562 85.4688V90H130.117C130.117 89.3698 130.117 88.7005 130.117 87.9922C130.117 87.2786 130.117 86.5677 130.117 85.8594C130.117 85.151 130.117 84.4818 130.117 83.8516C130.117 83.2214 130.117 82.6745 130.117 82.2109C130.117 81.7422 130.117 81.3958 130.117 81.1719C130.117 80.3333 130.112 79.5964 130.102 78.9609C130.091 78.3203 130.057 77.8333 130 77.5H131.562C131.562 78.1094 131.562 78.75 131.562 79.4219C131.562 80.0885 131.562 80.7214 131.562 81.3203C131.562 81.9193 131.562 82.4193 131.562 82.8203C131.562 83.2161 131.562 83.4479 131.562 83.5156C131.948 82.974 132.401 82.5651 132.922 82.2891C133.448 82.013 133.984 81.875 134.531 81.875C135.365 81.875 136.003 82.1484 136.445 82.6953C136.888 83.237 137.109 84.0443 137.109 85.1172C137.109 85.3516 137.109 85.6641 137.109 86.0547C137.109 86.4453 137.109 86.8724 137.109 87.3359C137.109 87.7995 137.109 88.263 137.109 88.7266C137.109 89.1901 137.109 89.6146 137.109 90H135.664C135.664 89.651 135.664 89.2708 135.664 88.8594C135.664 88.4427 135.664 88.0312 135.664 87.625C135.664 87.2135 135.664 86.8385 135.664 86.5C135.664 86.1615 135.664 85.8958 135.664 85.7031C135.664 85.0521 135.607 84.5495 135.492 84.1953C135.378 83.8359 135.203 83.5885 134.969 83.4531C134.74 83.3125 134.451 83.2422 134.102 83.2422C133.727 83.2422 133.367 83.3542 133.023 83.5781C132.68 83.8021 132.378 84.0859 132.117 84.4297C131.862 84.7682 131.677 85.1146 131.562 85.4688ZM149.852 84.8438V90H148.406V85.5469C148.406 84.901 148.372 84.4141 148.305 84.0859C148.237 83.7526 148.12 83.5286 147.953 83.4141C147.792 83.2995 147.565 83.2422 147.273 83.2422C146.893 83.2422 146.518 83.3932 146.148 83.6953C145.779 83.9922 145.49 84.375 145.281 84.8438V90H143.836V85.1953C143.836 84.4297 143.792 83.7786 143.703 83.2422C143.615 82.7057 143.529 82.3021 143.445 82.0312H144.852C144.909 82.1927 144.958 82.388 145 82.6172C145.042 82.8464 145.076 83.0547 145.102 83.2422C145.581 82.6901 146.029 82.3255 146.445 82.1484C146.862 81.9661 147.294 81.875 147.742 81.875C148.253 81.875 148.667 82.0078 148.984 82.2734C149.307 82.5391 149.534 82.8438 149.664 83.1875C150.154 82.6615 150.615 82.3125 151.047 82.1406C151.479 81.9635 151.901 81.875 152.312 81.875C153.104 81.875 153.654 82.1302 153.961 82.6406C154.268 83.1458 154.422 83.8802 154.422 84.8438V90H152.977V85.7031C152.977 85.0312 152.943 84.5182 152.875 84.1641C152.807 83.8099 152.69 83.5677 152.523 83.4375C152.362 83.3073 152.135 83.2422 151.844 83.2422C151.464 83.2422 151.094 83.388 150.734 83.6797C150.375 83.9661 150.081 84.3542 149.852 84.8438ZM164.156 90H162.828C162.755 89.8177 162.674 89.5859 162.586 89.3047C162.503 89.0182 162.44 88.7292 162.398 88.4375C161.924 89.0104 161.435 89.4479 160.93 89.75C160.424 90.0469 159.898 90.1953 159.352 90.1953C157.685 90.1953 156.852 89.0755 156.852 86.8359C156.852 86.7995 156.852 86.6693 156.852 86.4453C156.852 86.2214 156.852 85.9688 156.852 85.6875C156.852 85.401 156.852 85.1458 156.852 84.9219C156.852 84.6979 156.852 84.5677 156.852 84.5312C156.852 84.0365 156.844 83.6146 156.828 83.2656C156.812 82.9115 156.768 82.5 156.695 82.0312H158.297V86.3672C158.297 87.2526 158.393 87.8984 158.586 88.3047C158.784 88.7057 159.13 88.9062 159.625 88.9062C159.932 88.9062 160.258 88.7917 160.602 88.5625C160.951 88.3281 161.271 88.0417 161.562 87.7031C161.854 87.3646 162.068 87.0365 162.203 86.7188V84.5312C162.203 84.1875 162.201 83.888 162.195 83.6328C162.19 83.3776 162.174 83.1276 162.148 82.8828C162.128 82.6328 162.094 82.349 162.047 82.0312H163.648V86.4844C163.648 87.2396 163.693 87.9062 163.781 88.4844C163.87 89.0573 163.995 89.5625 164.156 90ZM171.43 82.5L171.156 83.8672C170.896 83.7161 170.568 83.5547 170.172 83.3828C169.776 83.2109 169.336 83.125 168.852 83.125C168.279 83.125 167.88 83.237 167.656 83.4609C167.438 83.6797 167.328 83.9062 167.328 84.1406C167.328 84.3229 167.37 84.4792 167.453 84.6094C167.542 84.7344 167.719 84.8516 167.984 84.9609C168.25 85.0703 168.656 85.1875 169.203 85.3125C169.677 85.4167 170.107 85.5625 170.492 85.75C170.883 85.9375 171.195 86.1875 171.43 86.5C171.664 86.8125 171.781 87.2109 171.781 87.6953C171.781 88.1641 171.646 88.5885 171.375 88.9688C171.109 89.3438 170.75 89.6432 170.297 89.8672C169.844 90.0859 169.336 90.1953 168.773 90.1953C168.143 90.1953 167.56 90.1068 167.023 89.9297C166.492 89.7474 166.073 89.5365 165.766 89.2969L166.156 87.8906C166.51 88.2083 166.938 88.4635 167.438 88.6562C167.943 88.849 168.401 88.9453 168.812 88.9453C169.271 88.9453 169.646 88.8385 169.938 88.625C170.229 88.4062 170.375 88.1615 170.375 87.8906C170.375 87.6927 170.318 87.513 170.203 87.3516C170.089 87.1849 169.875 87.0286 169.562 86.8828C169.255 86.7318 168.81 86.5859 168.227 86.4453C167.596 86.2891 167.115 86.099 166.781 85.875C166.448 85.651 166.221 85.401 166.102 85.125C165.982 84.8438 165.922 84.5417 165.922 84.2188C165.922 84.0365 165.969 83.8151 166.062 83.5547C166.156 83.2943 166.312 83.0365 166.531 82.7812C166.755 82.5208 167.062 82.3047 167.453 82.1328C167.844 81.9609 168.336 81.875 168.93 81.875C169.497 81.875 169.987 81.9427 170.398 82.0781C170.815 82.2083 171.159 82.349 171.43 82.5ZM173.82 82.0312H175.383C175.383 82.7396 175.383 83.4479 175.383 84.1562C175.383 84.8646 175.383 85.5755 175.383 86.2891C175.383 86.6224 175.388 87.0286 175.398 87.5078C175.414 87.9818 175.432 88.4453 175.453 88.8984C175.479 89.3516 175.508 89.7188 175.539 90H173.938C173.938 89.625 173.938 89.1849 173.938 88.6797C173.938 88.1745 173.938 87.6719 173.938 87.1719C173.938 86.6667 173.938 86.2292 173.938 85.8594C173.938 85.099 173.93 84.375 173.914 83.6875C173.904 82.9948 173.872 82.4427 173.82 82.0312ZM173.664 79.4922C173.664 79.2005 173.755 78.9531 173.938 78.75C174.12 78.5417 174.354 78.4375 174.641 78.4375C174.932 78.4375 175.174 78.5417 175.367 78.75C175.56 78.9531 175.656 79.2005 175.656 79.4922C175.656 79.7786 175.56 80.026 175.367 80.2344C175.174 80.4427 174.932 80.5469 174.641 80.5469C174.354 80.5469 174.12 80.4427 173.938 80.2344C173.755 80.026 173.664 79.7786 173.664 79.4922ZM183.945 87.9688L184.102 89.3359C183.706 89.6328 183.305 89.8516 182.898 89.9922C182.492 90.1276 181.995 90.1953 181.406 90.1953C180.708 90.1953 180.073 90.0339 179.5 89.7109C178.927 89.3828 178.469 88.9193 178.125 88.3203C177.786 87.7161 177.617 87 177.617 86.1719C177.617 85.3854 177.781 84.6667 178.109 84.0156C178.443 83.3646 178.914 82.8464 179.523 82.4609C180.133 82.0703 180.852 81.875 181.68 81.875C182.201 81.875 182.648 81.9375 183.023 82.0625C183.404 82.1823 183.737 82.3411 184.023 82.5391L183.75 83.9453C183.401 83.6849 183.049 83.4896 182.695 83.3594C182.341 83.2292 181.964 83.1641 181.562 83.1641C180.87 83.1641 180.286 83.4219 179.812 83.9375C179.339 84.4531 179.102 85.1719 179.102 86.0938C179.102 86.9323 179.323 87.612 179.766 88.1328C180.208 88.6484 180.807 88.9062 181.562 88.9062C182.031 88.9062 182.461 88.8255 182.852 88.6641C183.242 88.5026 183.607 88.2708 183.945 87.9688Z" fill="black"/>
<path d="M10.3111 39.5056C12.0887 39.0992 14.2523 37.1083 15.6879 34.6602C16.8763 32.7674 17.6551 30.7189 17.777 29.0699C17.7499 28.9514 17.7228 28.8329 17.8142 28.6873C17.8514 23.9402 14.831 12.9088 13.0939 6.94618C14.9054 7.7791 16.9742 7.55563 18.6604 7.29489C21.9143 6.80049 24.2202 6.52281 25.1107 12.0554C25.2191 12.5295 25.6829 12.9222 26.157 12.8139C26.631 12.7055 27.0238 12.2417 26.9154 11.7676C25.6185 4.45737 21.6536 5.1143 18.3997 5.60869C15.7383 5.96764 13.5781 6.33671 11.9257 3.47221C11.6988 3.02527 11.1706 2.89661 10.7237 3.12347C10.2767 3.35034 10.121 3.76006 10.2293 4.23409C12.0849 10.1696 14.9157 20.3715 15.6235 26.1953C13.5648 25.9177 11.0999 28.2269 9.3629 30.9933C7.35168 34.1964 6.38674 38.158 8.4251 39.4379C9.07182 39.5394 9.71853 39.641 10.3111 39.5056Z" fill="black"/>
<path d="M162.946 67.4552C163.256 67.6983 163.67 67.8199 163.98 67.8199C164.806 67.8199 165.736 67.3336 166.666 66.4827C167.596 65.6317 168.423 64.416 169.146 63.2004C170.593 60.6475 171.419 57.73 170.903 55.9065C170.903 55.785 170.903 55.6634 170.799 55.5418C170.593 54.934 169.973 51.7733 169.249 47.8833L179.375 39.4953L181.235 48.4911C179.582 48.6126 177.619 50.6792 176.172 53.2321C174.416 56.3928 173.486 60.2829 175.139 61.6201C175.449 61.8632 175.862 61.9848 176.172 61.9848C176.999 61.9848 177.929 61.4985 178.859 60.6476C179.789 59.7966 180.615 58.581 181.339 57.3653C182.579 55.0556 183.405 52.5027 183.199 50.6793L179.479 32.6877C179.375 32.4445 179.272 32.2014 178.962 32.0799C178.755 31.9583 178.446 31.9583 178.239 32.2014L166.873 41.5619C166.666 41.805 166.46 42.1697 166.563 42.5344C167.699 49.2205 168.423 52.6243 168.733 54.5693C167.183 54.6909 165.22 56.7575 163.773 59.3103C162.12 62.2279 161.19 66.118 162.946 67.4552ZM168.216 42.5344L178.239 34.268L178.962 37.6718L168.836 45.9382C168.629 44.8441 168.423 43.6285 168.216 42.5344Z" fill="black"/>
</svg>
