<svg width="1440" height="173" viewBox="0 0 1440 173" fill="none" xmlns="http://www.w3.org/2000/svg">
<path d="M0 87L34.4 93.7C68.8 100.3 137.6 113.7 206.08 116C274.72 118.3 342.88 109.7 411.52 101.2C480 92.7 548.8 84.3 617.28 103.3C685.92 122.3 754.08 168.7 822.72 172.3C891.2 176 960 137 1028.48 117.2C1097.12 97.3 1165.28 96.7 1233.92 103.3C1302.4 110 1371.2 124 1405.6 131L1440 138V0H1405.6C1371.2 0 1302.4 0 1233.92 0C1165.28 0 1097.12 0 1028.48 0C960 0 891.2 0 822.72 0C754.08 0 685.92 0 617.28 0C548.8 0 480 0 411.52 0C342.88 0 274.72 0 206.08 0C137.6 0 68.8 0 34.4 0H0V87Z" fill="#FFD196"/>
</svg>
